<svg width="46" height="12" viewBox="0 0 46 12" fill="none" xmlns="http://www.w3.org/2000/svg">
<path d="M7.5 4.46484L7.42969 4.99805C7.35156 5.52148 7.21094 6.03125 7.00781 6.52734C6.80859 7.02344 6.54492 7.46875 6.2168 7.86328C5.88867 8.25781 5.49609 8.56836 5.03906 8.79492C4.58203 9.02148 4.05859 9.12891 3.46875 9.11719C2.90625 9.10547 2.43555 8.97852 2.05664 8.73633C1.68164 8.49023 1.38867 8.16797 1.17773 7.76953C0.970703 7.37109 0.833984 6.93164 0.767578 6.45117C0.705078 5.9707 0.705078 5.48828 0.767578 5.00391L0.84375 4.4707C0.917969 3.94727 1.05664 3.43945 1.25977 2.94727C1.4668 2.45117 1.73438 2.00586 2.0625 1.61133C2.39453 1.2168 2.78906 0.90625 3.24609 0.679688C3.70312 0.449219 4.22266 0.339844 4.80469 0.351562C5.375 0.363281 5.84766 0.490234 6.22266 0.732422C6.60156 0.974609 6.89453 1.29492 7.10156 1.69336C7.30859 2.0918 7.44141 2.53125 7.5 3.01172C7.5625 3.49219 7.5625 3.97656 7.5 4.46484ZM6.33398 5.00391L6.41016 4.44727C6.45312 4.11523 6.46875 3.76953 6.45703 3.41016C6.44531 3.05078 6.38477 2.71484 6.27539 2.40234C6.16992 2.08594 5.99609 1.82812 5.75391 1.62891C5.51172 1.42969 5.17773 1.32227 4.75195 1.30664C4.31836 1.29492 3.9375 1.38086 3.60938 1.56445C3.28125 1.74414 3.00195 1.99023 2.77148 2.30273C2.54492 2.61133 2.36328 2.95312 2.22656 3.32812C2.08984 3.70312 1.99414 4.07812 1.93945 4.45312L1.86328 5.00977C1.82031 5.33398 1.80469 5.67773 1.81641 6.04102C1.83203 6.40039 1.89453 6.73828 2.00391 7.05469C2.11328 7.37109 2.28906 7.63281 2.53125 7.83984C2.77344 8.04297 3.10352 8.15234 3.52148 8.16797C3.9668 8.17969 4.35352 8.0957 4.68164 7.91602C5.00977 7.73242 5.28516 7.48633 5.50781 7.17773C5.73438 6.86914 5.91406 6.52539 6.04688 6.14648C6.18359 5.76758 6.2793 5.38672 6.33398 5.00391ZM10.1426 3.94336L8.8418 11.4375H7.77539L9.29883 2.66016H10.2715L10.1426 3.94336ZM13.957 5.74219L13.9453 5.86523C13.8945 6.24805 13.8008 6.63477 13.6641 7.02539C13.5312 7.41211 13.3496 7.76562 13.1191 8.08594C12.8887 8.40625 12.6055 8.66211 12.2695 8.85352C11.9375 9.04492 11.5469 9.13477 11.0977 9.12305C10.7031 9.11523 10.3652 9.0293 10.084 8.86523C9.80273 8.69727 9.57617 8.47656 9.4043 8.20312C9.23242 7.92578 9.10938 7.61719 9.03516 7.27734C8.96484 6.93359 8.94141 6.58203 8.96484 6.22266L9.04688 5.57227C9.11328 5.18945 9.22461 4.81641 9.38086 4.45312C9.54102 4.08594 9.74414 3.75586 9.99023 3.46289C10.2363 3.16992 10.5273 2.94141 10.8633 2.77734C11.2031 2.60938 11.5879 2.53125 12.0176 2.54297C12.4512 2.55469 12.8027 2.66016 13.0723 2.85938C13.3457 3.05469 13.5527 3.31055 13.6934 3.62695C13.8379 3.93945 13.9277 4.28125 13.9629 4.65234C13.998 5.01953 13.9961 5.38281 13.957 5.74219ZM12.8789 5.85938L12.8965 5.73047C12.9238 5.49609 12.9297 5.24805 12.9141 4.98633C12.9023 4.72461 12.8535 4.48047 12.7676 4.25391C12.6855 4.02344 12.5547 3.83398 12.375 3.68555C12.1992 3.53711 11.959 3.45898 11.6543 3.45117C11.4121 3.44336 11.1816 3.48438 10.9629 3.57422C10.748 3.66016 10.5527 3.7832 10.377 3.94336C10.2012 4.09961 10.0508 4.28125 9.92578 4.48828C9.80078 4.69141 9.70898 4.90625 9.65039 5.13281L9.39844 6.66211C9.39453 6.93945 9.45508 7.19727 9.58008 7.43555C9.70508 7.66992 9.875 7.85938 10.0898 8.00391C10.3086 8.14844 10.5566 8.22461 10.834 8.23242C11.1582 8.24023 11.4395 8.17578 11.6777 8.03906C11.9199 7.89844 12.123 7.71094 12.2871 7.47656C12.4512 7.23828 12.582 6.97852 12.6797 6.69727C12.7773 6.41211 12.8438 6.13281 12.8789 5.85938ZM17.3848 8.23242C17.6426 8.23633 17.8828 8.1875 18.1055 8.08594C18.3281 7.98438 18.5176 7.83984 18.6738 7.65234C18.8301 7.46484 18.9414 7.24805 19.0078 7.00195L20.0156 6.99609C19.9531 7.42188 19.7871 7.79492 19.5176 8.11523C19.252 8.43555 18.9258 8.68555 18.5391 8.86523C18.1562 9.04102 17.7559 9.125 17.3379 9.11719C16.8926 9.10938 16.5137 9.01758 16.2012 8.8418C15.8926 8.66211 15.6445 8.42383 15.457 8.12695C15.2695 7.83008 15.1406 7.49609 15.0703 7.125C15 6.75 14.9844 6.36523 15.0234 5.9707L15.0469 5.71875C15.0938 5.29297 15.1973 4.88867 15.3574 4.50586C15.5176 4.11914 15.7305 3.77734 15.9961 3.48047C16.2656 3.17969 16.584 2.94531 16.9512 2.77734C17.3184 2.60938 17.7305 2.53125 18.1875 2.54297C18.6328 2.55078 19.0195 2.65625 19.3477 2.85938C19.6758 3.05859 19.9297 3.33008 20.1094 3.67383C20.2891 4.01758 20.3789 4.4082 20.3789 4.8457L19.3828 4.83984C19.3789 4.58984 19.3301 4.35938 19.2363 4.14844C19.1426 3.9375 19.0039 3.76758 18.8203 3.63867C18.6367 3.50977 18.4102 3.43945 18.1406 3.42773C17.8164 3.41992 17.5332 3.48047 17.291 3.60938C17.0527 3.73828 16.8496 3.91602 16.6816 4.14258C16.5176 4.36523 16.3867 4.61328 16.2891 4.88672C16.1953 5.16016 16.1309 5.4375 16.0957 5.71875L16.0664 5.96484C16.043 6.21484 16.0391 6.4707 16.0547 6.73242C16.0742 6.99414 16.1289 7.23828 16.2188 7.46484C16.3086 7.6875 16.4473 7.86914 16.6348 8.00977C16.8223 8.15039 17.0723 8.22461 17.3848 8.23242ZM23.0859 2.66016L21.9844 9H20.9238L22.0254 2.66016H23.0859ZM22.2363 0.996094C22.2363 0.8125 22.293 0.660156 22.4062 0.539062C22.5234 0.414063 22.6738 0.349609 22.8574 0.345703C23.041 0.341797 23.1914 0.398438 23.3086 0.515625C23.4297 0.632812 23.4883 0.78125 23.4844 0.960938C23.4844 1.14062 23.4238 1.29102 23.3027 1.41211C23.1855 1.5293 23.0371 1.58984 22.8574 1.59375C22.6777 1.59766 22.5293 1.54492 22.4121 1.43555C22.2949 1.32227 22.2363 1.17578 22.2363 0.996094ZM23.9473 5.93555L23.9648 5.80078C24.0117 5.375 24.1172 4.96484 24.2812 4.57031C24.4492 4.17578 24.6699 3.82422 24.9434 3.51562C25.2168 3.20703 25.541 2.96484 25.916 2.78906C26.291 2.61328 26.709 2.53125 27.1699 2.54297C27.6152 2.55078 27.9961 2.64648 28.3125 2.83008C28.6328 3.01367 28.8906 3.25781 29.0859 3.5625C29.2852 3.86328 29.4238 4.20312 29.502 4.58203C29.5801 4.96094 29.5996 5.35156 29.5605 5.75391L29.5488 5.88867C29.498 6.31445 29.3887 6.72266 29.2207 7.11328C29.0527 7.50391 28.8301 7.85156 28.5527 8.15625C28.2793 8.46094 27.9551 8.70117 27.5801 8.87695C27.2051 9.04883 26.7891 9.12891 26.332 9.11719C25.8906 9.10938 25.5098 9.01562 25.1895 8.83594C24.873 8.65234 24.6172 8.41016 24.4219 8.10938C24.2266 7.80859 24.0898 7.4707 24.0117 7.0957C23.9336 6.7207 23.9121 6.33398 23.9473 5.93555ZM25.0195 5.80078L25.0078 5.94141C24.9805 6.1875 24.9785 6.44336 25.002 6.70898C25.0293 6.97461 25.0918 7.2207 25.1895 7.44727C25.291 7.67383 25.4375 7.85938 25.6289 8.00391C25.8203 8.14844 26.0684 8.22461 26.373 8.23242C26.6973 8.24023 26.9824 8.17773 27.2285 8.04492C27.4746 7.9082 27.6836 7.72461 27.8555 7.49414C28.0312 7.26367 28.1699 7.00781 28.2715 6.72656C28.377 6.44531 28.4473 6.16602 28.4824 5.88867L28.4941 5.75391C28.5215 5.50781 28.5215 5.25195 28.4941 4.98633C28.4707 4.7168 28.4082 4.4668 28.3066 4.23633C28.209 4.00195 28.0645 3.8125 27.873 3.66797C27.6816 3.51953 27.4336 3.44141 27.1289 3.43359C26.8047 3.42188 26.5176 3.48633 26.2676 3.62695C26.0215 3.76367 25.8125 3.94922 25.6406 4.18359C25.4688 4.41797 25.3301 4.67773 25.2246 4.96289C25.123 5.24414 25.0547 5.52344 25.0195 5.80078ZM32.2324 4.07812L31.377 9H30.3164L31.418 2.66016H32.4199L32.2324 4.07812ZM31.7402 5.58984L31.3066 5.57812C31.3613 5.19922 31.4609 4.82812 31.6055 4.46484C31.7539 4.09766 31.9473 3.76758 32.1855 3.47461C32.4277 3.18164 32.7148 2.95117 33.0469 2.7832C33.3828 2.61133 33.7656 2.53125 34.1953 2.54297C34.5352 2.55078 34.8184 2.61719 35.0449 2.74219C35.2754 2.86328 35.4551 3.0293 35.584 3.24023C35.7129 3.45117 35.7988 3.69531 35.8418 3.97266C35.8848 4.24609 35.8887 4.53711 35.8535 4.8457L35.1621 9H34.0957L34.7988 4.82812C34.8262 4.57422 34.8164 4.3457 34.7695 4.14258C34.7266 3.93555 34.6289 3.77148 34.4766 3.65039C34.3281 3.52539 34.1133 3.45898 33.832 3.45117C33.5352 3.44336 33.2676 3.5 33.0293 3.62109C32.791 3.74219 32.582 3.9082 32.4023 4.11914C32.2266 4.32617 32.082 4.55859 31.9688 4.81641C31.8594 5.07031 31.7832 5.32812 31.7402 5.58984ZM40.582 7.91602L41.1094 4.64062C41.1367 4.39844 41.1133 4.18555 41.0391 4.00195C40.9688 3.81836 40.8496 3.67578 40.6816 3.57422C40.5176 3.47266 40.3105 3.41797 40.0605 3.41016C39.8418 3.40625 39.627 3.44141 39.416 3.51562C39.209 3.58984 39.0293 3.70117 38.877 3.84961C38.7246 3.99805 38.625 4.18555 38.5781 4.41211L37.5234 4.41797C37.5508 4.10156 37.6504 3.82617 37.8223 3.5918C37.9941 3.35352 38.209 3.15625 38.4668 3C38.7246 2.83984 39.002 2.72266 39.2988 2.64844C39.5957 2.57031 39.8848 2.5332 40.166 2.53711C40.5918 2.54492 40.9609 2.63672 41.2734 2.8125C41.5898 2.98438 41.8281 3.22656 41.9883 3.53906C42.1484 3.85156 42.207 4.22656 42.1641 4.66406L41.6777 7.61719C41.6426 7.83203 41.6211 8.04883 41.6133 8.26758C41.6094 8.48242 41.6348 8.69336 41.6895 8.90039L41.6777 9L40.6055 9.00586C40.5625 8.82617 40.541 8.64453 40.541 8.46094C40.5449 8.27734 40.5586 8.0957 40.582 7.91602ZM41.2324 5.15625L41.1094 5.91797L40.1074 5.91211C39.8965 5.91211 39.6738 5.92773 39.4395 5.95898C39.2051 5.99023 38.9824 6.04883 38.7715 6.13477C38.5605 6.2207 38.3828 6.3457 38.2383 6.50977C38.0938 6.66992 38.0059 6.87891 37.9746 7.13672C37.9512 7.34766 37.9766 7.53125 38.0508 7.6875C38.1289 7.83984 38.2461 7.95898 38.4023 8.04492C38.5586 8.13086 38.7402 8.17578 38.9473 8.17969C39.2168 8.18359 39.4824 8.13086 39.7441 8.02148C40.0059 7.91211 40.2344 7.75586 40.4297 7.55273C40.625 7.34961 40.7598 7.11523 40.834 6.84961L41.2207 7.37109C41.1465 7.62891 41.0254 7.86719 40.8574 8.08594C40.6895 8.30078 40.4902 8.48633 40.2598 8.64258C40.0332 8.79883 39.7891 8.91992 39.5273 9.00586C39.2656 9.0918 39.0039 9.13281 38.7422 9.12891C38.3867 9.12109 38.0645 9.04102 37.7754 8.88867C37.4902 8.73633 37.2637 8.52344 37.0957 8.25C36.9316 7.97266 36.8613 7.65039 36.8848 7.2832C36.9082 6.88086 37.0137 6.54297 37.2012 6.26953C37.3887 5.99609 37.6289 5.77734 37.9219 5.61328C38.2188 5.44922 38.543 5.33203 38.8945 5.26172C39.2461 5.1875 39.5938 5.15039 39.9375 5.15039L41.2324 5.15625ZM45.8027 0L44.2383 9H43.1777L44.7363 0H45.8027Z" fill="#8D8686"/>
</svg>
